# Blender 4.4.3
# www.blender.org
mtllib flashlight2.mtl
o Cube
v -0.652768 0.286016 -0.210374
v -0.652768 0.286016 0.210374
v -0.003848 0.286016 0.210374
v -0.003848 0.286016 -0.210374
v -1.155689 0.296016 -0.195374
v -1.155689 0.296016 0.195374
v -1.062065 -0.336016 -0.235374
v -1.155689 -0.031392 -0.195374
v -1.155689 -0.031392 0.195374
v -1.062065 -0.336016 0.235374
v -1.326689 0.336016 0.235374
v -1.326689 0.336016 -0.235374
v -1.326689 -0.071392 0.235374
v -1.326689 -0.071392 -0.235374
v -1.326689 0.336016 0.235374
v -1.326689 0.336016 -0.235374
v -1.326689 -0.071392 0.235374
v -1.326689 -0.071392 -0.235374
v 1.268992 0.336016 -0.235374
v 1.326689 0.278320 -0.177677
v 1.326689 -0.278320 -0.177677
v 1.268992 -0.336016 -0.235374
v 1.326689 0.278320 0.177677
v 1.268992 0.336016 0.235374
v 1.268992 -0.336016 0.235374
v 1.326689 -0.278320 0.177677
v 0.620072 0.336016 -0.235374
v 0.620072 0.336016 0.235374
v -0.378308 0.286016 0.210374
v -0.378308 0.286016 -0.210374
v 0.270612 0.286016 0.210374
v 0.270612 0.286016 -0.210374
v -0.622842 0.277016 -0.223374
v -0.618768 0.277016 0.223374
v -0.415509 0.277016 -0.223374
v -0.410562 0.277016 0.223374
v 0.026389 0.277016 -0.223374
v 0.032091 0.277016 0.223374
v 0.235481 0.277016 -0.223374
v 0.239456 0.277016 0.223374
v 0.295612 0.354218 0.235374
v 0.620072 0.354218 0.235374
v 0.620072 0.354218 -0.235374
v 0.295612 0.354218 -0.235374
v 0.266838 -0.277016 0.223374
v 0.050010 -0.277016 0.223374
v -0.393917 -0.277016 0.223374
v -0.618769 -0.277016 0.223374
v -0.444796 -0.277016 -0.223374
v -0.662508 -0.277016 -0.223374
v 0.224961 -0.277016 -0.223374
v -0.010154 -0.277016 -0.223374
v -0.353308 0.336016 -0.235374
v -0.677768 0.336016 -0.235374
v 0.295612 0.336016 -0.235374
v -0.028848 0.336016 -0.235374
v -0.677768 0.336016 0.235374
v -0.353308 0.336016 0.235374
v -0.028848 0.336016 0.235374
v 0.295612 0.336016 0.235374
v 0.328826 -0.336016 0.235374
v -0.007112 -0.336016 0.235374
v -0.333118 -0.336016 0.235374
v -0.677769 -0.336016 0.235374
v -0.388833 -0.336016 -0.235374
v -0.725883 -0.336016 -0.235374
v 0.282852 -0.336016 -0.235374
v -0.073173 -0.336016 -0.235374
v 1.204372 -0.257042 0.235373
v 1.204372 -0.257042 0.271191
v 0.698137 -0.257042 0.235374
v 0.698137 -0.257042 0.271191
v 1.204372 0.288967 0.235373
v 1.204372 0.288967 0.271191
v 0.698137 0.288967 0.235374
v 0.698137 0.288967 0.271191
vn -0.0000 -0.0000 -1.0000
vn -0.0000 1.0000 -0.0000
vn -0.0000 -1.0000 -0.0000
vn -1.0000 -0.0000 -0.0000
vn -0.7071 -0.7071 -0.0000
vn -0.0000 -0.0000 1.0000
vn -0.2278 -0.9737 -0.0000
vn -0.2278 0.9737 -0.0000
vn -0.2278 -0.0000 0.9737
vn -0.2278 -0.0000 -0.9737
vn 0.7071 -0.0000 -0.7071
vn 0.7071 -0.0000 0.7071
vn 0.7071 0.7071 -0.0000
vn 0.7071 -0.7071 -0.0000
vn 1.0000 -0.0000 -0.0000
vn 0.8944 0.4472 -0.0000
vn -0.0000 0.4472 0.8944
vn -0.0000 0.4472 -0.8944
vn -0.8944 0.4472 -0.0000
vn -0.0000 -0.1993 -0.9799
vn -0.0000 -0.1993 0.9799
vn -0.0000 0.1993 0.9799
vn -0.1992 -0.0060 0.9799
vn 0.1993 -0.0000 0.9799
vn 0.1992 0.0064 0.9799
vn -0.1991 -0.0098 0.9799
vn -0.0000 0.1993 -0.9799
vn 0.1988 -0.0142 -0.9799
vn -0.1990 0.0105 -0.9799
vn 0.1989 -0.0131 -0.9799
vn -0.1993 0.0038 -0.9799
vt 0.634544 0.104248
vt 0.715165 0.083829
vt 0.839287 0.083829
vt 0.839287 0.133902
vt 0.634544 0.130189
vt 0.570206 0.534761
vt 0.596066 0.534761
vt 0.596066 0.758208
vt 0.570206 0.758208
vt 0.699258 0.222953
vt 0.716173 0.222953
vt 0.733132 0.222953
vt 0.749014 0.222953
vt 0.766927 0.222953
vt 0.816544 0.222953
vt 0.816544 0.356456
vt 0.769240 0.356456
vt 0.752338 0.356456
vt 0.735935 0.356456
vt 0.718594 0.356456
vt 0.699258 0.356456
vt 0.729141 0.446395
vt 0.730206 0.496167
vt 0.520132 0.500524
vt 0.519066 0.450753
vt 0.830322 0.576361
vt 0.952120 0.576361
vt 0.952120 0.783875
vt 0.830322 0.783875
vt 0.006617 0.589891
vt 0.260612 0.588446
vt 0.260757 0.612986
vt 0.006761 0.614431
vt 0.407758 0.009652
vt 0.657758 0.009652
vt 0.657758 0.070793
vt 0.657758 0.101364
vt 0.407758 0.098234
vt 0.625000 0.250000
vt 0.625000 0.000000
vt 0.473442 0.000000
vt 0.473442 0.250000
vt 0.000000 0.000000
vt 0.695794 0.786793
vt 0.695794 0.579279
vt 0.710675 0.558036
vt 0.710675 0.808036
vt 0.573997 0.579279
vt 0.573997 0.786793
vt 0.559116 0.808036
vt 0.559116 0.558036
vt 0.735828 0.632327
vt 0.528755 0.632327
vt 0.507292 0.596250
vt 0.757292 0.596250
vt 0.757292 0.857123
vt 0.507292 0.857123
vt 0.528755 0.821046
vt 0.735828 0.821046
vt 0.762728 0.601686
vt 0.762728 0.851686
vt 0.501856 0.851686
vt 0.501856 0.601686
vt 0.572892 0.420239
vt 0.684552 0.420239
vt 0.684552 0.484458
vt 0.572892 0.484458
vt 0.570800 0.533785
vt 0.596660 0.533785
vt 0.596660 0.757231
vt 0.570800 0.757231
vt 0.577879 0.372348
vt 0.578800 0.408695
vt 0.425388 0.412463
vt 0.424466 0.376117
vt 0.565523 0.444272
vt 0.565127 0.415102
vt 0.693559 0.408902
vt 0.693954 0.438072
vt 0.722148 0.500000
vt 0.722148 0.750000
vt 0.650234 0.767580
vt 0.650234 0.666919
vt 0.652589 0.660938
vt 0.652589 0.773562
vt 0.624374 0.666919
vt 0.622019 0.660938
vt 0.624374 0.767580
vt 0.622019 0.773562
vt 0.589093 0.767580
vt 0.589093 0.666919
vt 0.591448 0.660938
vt 0.591448 0.773562
vt 0.563233 0.666919
vt 0.560878 0.660938
vt 0.563233 0.767580
vt 0.560878 0.773562
vt 0.684903 0.409495
vt 0.684692 0.435834
vt 0.568344 0.435320
vt 0.568555 0.408981
vt 0.691577 0.750000
vt 0.691577 0.500000
vt 0.625000 0.656637
vt 0.704375 0.617386
vt 0.625000 0.626067
vt 0.625000 0.847148
vt 0.625000 0.816577
vt 0.682431 0.426859
vt 0.830079 0.428707
vt 0.830079 0.442704
vt 0.682431 0.441494
vt 0.022222 0.579900
vt 0.272222 0.582299
vt 0.272222 0.618110
vt 0.022222 0.615881
vt 0.678933 0.427384
vt 0.826581 0.428508
vt 0.826581 0.442561
vt 0.678933 0.442561
vt 0.480833 0.078876
vt 0.640083 0.078876
vt 0.640083 0.132071
vt 0.543540 0.132071
vt 0.480833 0.110379
vt 0.678933 0.418342
vt 0.826581 0.421019
vt 0.826581 0.435014
vt 0.678933 0.433037
vt 0.023482 0.581420
vt 0.273482 0.584767
vt 0.273482 0.615337
vt 0.023482 0.611161
vt 0.680332 0.426695
vt 0.827980 0.429161
vt 0.827980 0.443274
vt 0.680332 0.442564
vt 0.312004 0.006065
vt 0.470544 0.006827
vt 0.470544 0.026214
vt 0.470544 0.064987
vt 0.312004 0.064987
vt 0.589254 0.695474
vt 0.589254 0.675939
vt 0.589254 0.670764
vt 0.589254 0.701334
vt 0.589254 0.756810
vt 0.589254 0.737109
vt 0.589254 0.731905
vt 0.589254 0.762475
vt 0.649741 0.768369
vt 0.649741 0.748752
vt 0.660106 0.743358
vt 0.660106 0.773928
vt 0.649741 0.707046
vt 0.649741 0.687508
vt 0.660106 0.682217
vt 0.660106 0.712787
vt 0.578377 0.684928
vt 0.578377 0.705357
vt 0.556429 0.710739
vt 0.556429 0.679087
vt 0.578377 0.747184
vt 0.578377 0.768369
vt 0.556429 0.773928
vt 0.556429 0.741455
vt 0.596775 0.672202
vt 0.596775 0.692715
vt 0.632833 0.697987
vt 0.632833 0.666231
vt 0.596775 0.733666
vt 0.596775 0.755819
vt 0.632833 0.761273
vt 0.632833 0.727729
vt 0.563472 0.669643
vt 0.710972 0.669643
vt 0.710228 0.670267
vt 0.562728 0.670267
vt 0.710228 0.748948
vt 0.562728 0.748948
vt 0.710972 0.669955
vt 0.563472 0.669955
vt 0.710972 0.748635
vt 0.563472 0.748635
vt 0.125000 0.500000
vt 0.375000 0.500000
vt 0.375000 0.750000
vt 0.125000 0.750000
vt 0.505307 0.692212
vt 0.755307 0.692212
vt 0.755307 0.942212
vt 0.505307 0.942212
s 0
usemtl Material
f 7/1/1 14/2/1 12/3/1 54/4/1 66/5/1
f 32/6/2 4/7/2 3/8/2 31/9/2
f 7/10/3 66/11/3 65/12/3 68/13/3 67/14/3 22/15/3 25/16/3 61/17/3 62/18/3 63/19/3 64/20/3 10/21/3
f 54/22/2 12/23/2 11/24/2 57/25/2
f 7/30/5 10/31/5 13/32/5 14/33/5
f 25/34/6 24/35/6 28/36/6 60/37/6 61/38/6
f 16/39/2 15/40/2 11/40/2 12/39/2
f 17/41/2 18/42/2 14/42/2 13/41/2
f 18/43/2 16/43/2 12/43/2 14/43/2
f 15/43/2 17/43/2 13/43/2 11/43/2
f 5/44/7 6/45/7 15/46/7 16/47/7
f 9/48/8 8/49/8 18/50/8 17/51/8
f 8/49/9 5/44/9 16/47/9 18/50/9
f 6/45/10 9/48/10 17/51/10 15/46/10
f 20/52/11 21/53/11 22/54/11 19/55/11
f 24/56/12 25/57/12 26/58/12 23/59/12
f 19/60/13 24/61/13 23/59/13 20/52/13
f 25/62/14 22/63/14 21/53/14 26/58/14
f 21/64/15 20/65/15 23/66/15 26/67/15
f 30/68/2 1/69/2 2/70/2 29/71/2
f 19/72/2 27/73/2 28/74/2 24/75/2
f 56/76/2 53/77/2 58/78/2 59/79/2
f 55/80/4 60/81/4 41/81/4 44/80/4
f 2/82/16 1/83/16 54/84/16 57/85/16
f 1/83/17 30/86/17 53/87/17 54/84/17
f 29/88/18 2/82/18 57/85/18 58/89/18
f 30/86/19 29/88/19 58/89/19 53/87/19
f 3/90/16 4/91/16 56/92/16 59/93/16
f 4/91/17 32/94/17 55/95/17 56/92/17
f 31/96/18 3/90/18 59/93/18 60/97/18
f 32/94/19 31/96/19 60/97/19 55/95/19
f 43/98/2 44/99/2 41/100/2 42/101/2
f 28/102/15 27/103/15 43/103/15 42/102/15
f 27/104/1 55/105/1 44/106/1 43/104/1
f 60/107/6 28/108/6 42/108/6 41/107/6
f 45/109/6 40/110/6 38/111/6 46/112/6
f 62/113/6 59/114/6 58/115/6 63/116/6
f 47/117/6 36/118/6 34/119/6 48/120/6
f 64/121/6 57/122/6 11/123/6 13/124/6 10/125/6
f 50/126/1 33/127/1 35/128/1 49/129/1
f 65/130/1 53/131/1 56/132/1 68/133/1
f 52/134/1 37/135/1 39/136/1 51/137/1
f 67/138/1 55/139/1 27/140/1 19/141/1 22/142/1
f 35/143/20 33/144/20 54/145/20 53/146/20
f 39/147/20 37/148/20 56/149/20 55/150/20
f 34/151/21 36/152/21 58/153/21 57/154/21
f 38/155/21 40/156/21 60/157/21 59/158/21
f 45/159/22 46/160/22 62/161/22 61/162/22
f 47/163/22 48/164/22 64/165/22 63/166/22
f 36/152/23 47/163/23 63/166/23 58/153/23
f 48/164/24 34/151/24 57/154/24 64/165/24
f 46/160/25 38/155/25 59/158/25 62/161/25
f 40/156/26 45/159/26 61/162/26 60/157/26
f 50/167/27 49/168/27 65/169/27 66/170/27
f 33/144/28 50/167/28 66/170/28 54/145/28
f 49/168/29 35/143/29 53/146/29 65/169/29
f 52/171/27 51/172/27 67/173/27 68/174/27
f 37/148/30 52/171/30 68/174/30 56/149/30
f 51/172/31 39/147/31 55/150/31 67/173/31
f 71/185/1 75/186/1 73/187/1 69/188/1
f 76/189/6 72/190/6 70/191/6 74/192/6
usemtl FlashLight_Glow
f 9/26/4 6/27/4 5/28/4 8/29/4
f 69/175/3 70/176/3 72/177/3 71/178/3
f 71/178/4 72/177/4 76/179/4 75/180/4
f 75/180/2 76/179/2 74/181/2 73/182/2
f 73/182/15 74/181/15 70/183/15 69/184/15
